<svg width="32" height="32" viewBox="0 0 32 32" fill="none" xmlns="http://www.w3.org/2000/svg">
<path fill-rule="evenodd" clip-rule="evenodd" d="M23.83 8.11334L20.5467 9.1L22.7334 14.8187C24.0511 14.4959 25.4423 14.6874 26.6237 15.3543C27.8052 16.0211 28.6881 17.1131 29.0928 18.408C29.4975 19.7029 29.3934 21.1034 28.8019 22.3243C28.2104 23.5452 27.1758 24.4948 25.9088 24.9798C24.6417 25.4648 23.2375 25.4486 21.9819 24.9347C20.7264 24.4208 19.7139 23.4477 19.1505 22.2136C18.5871 20.9794 18.5153 19.5769 18.9495 18.2917C19.3838 17.0064 20.2916 15.9349 21.488 15.2953L20.3894 12.422L16.6014 20.29C16.5467 20.403 16.4613 20.4983 16.355 20.565C16.2486 20.6316 16.1255 20.6669 16 20.6667H13.292C13.1209 22.0115 12.4441 23.2408 11.3992 24.1045C10.3543 24.9683 9.01971 25.4018 7.66667 25.3169C6.31363 25.232 5.04368 24.6351 4.11494 23.6475C3.1862 22.6599 2.66837 21.3557 2.66669 20C2.66568 18.6426 3.18225 17.336 4.11114 16.3462C5.04003 15.3565 6.31135 14.7582 7.66605 14.6732C9.02074 14.5882 10.3569 15.0229 11.4022 15.8888C12.4475 16.7546 13.1234 17.9865 13.292 19.3333H14.9587L11.7054 10.224C11.6797 10.1521 11.6666 10.0763 11.6667 10H10.6667C10.4899 10 10.3203 9.92977 10.1953 9.80474C10.0703 9.67972 10 9.51015 10 9.33334C10 9.15653 10.0703 8.98696 10.1953 8.86193C10.3203 8.73691 10.4899 8.66667 10.6667 8.66667H13.6667C13.8435 8.66667 14.0131 8.73691 14.1381 8.86193C14.2631 8.98696 14.3334 9.15653 14.3334 9.33334C14.3334 9.51015 14.2631 9.67972 14.1381 9.80474C14.0131 9.92977 13.8435 10 13.6667 10H13.0414L14.2694 13.438L19.6874 10.5867L19.044 8.90467C19.0113 8.81902 18.9966 8.72753 19.0008 8.63592C19.005 8.54432 19.0281 8.45457 19.0686 8.37229C19.109 8.29001 19.1661 8.21697 19.2361 8.15773C19.306 8.09849 19.3875 8.05433 19.4754 8.028L23.4467 6.83667L23.83 8.11334V8.11334ZM14.722 14.7067L16.0367 18.3867L18.8567 12.5307L14.722 14.7067V14.7067ZM23.3774 20.238L21.9687 16.5533C21.1049 17.063 20.464 17.8785 20.1731 18.8384C19.8823 19.7982 19.9626 20.8323 20.3982 21.7357C20.8338 22.6392 21.5929 23.346 22.5251 23.7161C23.4572 24.0862 24.4944 24.0927 25.4311 23.7341C26.3678 23.3756 27.1356 22.6783 27.5824 21.7803C28.0292 20.8824 28.1224 19.8494 27.8434 18.886C27.5645 17.9226 26.9338 17.0992 26.0764 16.5788C25.219 16.0585 24.1974 15.8793 23.214 16.0767L24.6227 19.762C24.6829 19.9265 24.676 20.1081 24.6034 20.2676C24.5308 20.427 24.3984 20.5515 24.2347 20.614C24.0711 20.6766 23.8894 20.6722 23.7289 20.6018C23.5685 20.5315 23.4422 20.4008 23.3774 20.238V20.238ZM11.9447 19.3333H8.00002C7.82321 19.3333 7.65364 19.4036 7.52862 19.5286C7.40359 19.6536 7.33335 19.8232 7.33335 20C7.33335 20.1768 7.40359 20.3464 7.52862 20.4714C7.65364 20.5964 7.82321 20.6667 8.00002 20.6667H11.9447C11.7749 21.6534 11.2413 22.5406 10.4493 23.1531C9.65731 23.7656 8.66446 24.059 7.66675 23.9753C6.66903 23.8916 5.73896 23.4368 5.06013 22.7009C4.38129 21.9649 4.00304 21.0012 4.00002 20C3.99911 18.9964 4.37548 18.0291 5.05448 17.2901C5.73347 16.5511 6.66546 16.0943 7.66554 16.0104C8.66562 15.9264 9.6607 16.2215 10.4534 16.8371C11.246 17.4526 11.7783 18.3436 11.9447 19.3333V19.3333Z" fill="white"/>
</svg>
