<svg width="28" height="28" viewBox="0 0 28 28" fill="none" xmlns="http://www.w3.org/2000/svg">
<path d="M18.375 2.625H9.625C8.4651 2.62639 7.35311 3.08777 6.53294 3.90794C5.71277 4.72811 5.25139 5.8401 5.25 7V17.5C5.25325 18.4405 5.56007 19.3547 6.12481 20.1068C6.68954 20.8588 7.482 21.4084 8.38425 21.6738L6.79788 25.375H8.70187L10.2016 21.875H17.7984L19.2981 25.375H21.2021L19.6157 21.6738C20.518 21.4084 21.3105 20.8588 21.8752 20.1068C22.4399 19.3547 22.7467 18.4405 22.75 17.5V7C22.7486 5.8401 22.2872 4.72811 21.4671 3.90794C20.6469 3.08777 19.5349 2.62639 18.375 2.625V2.625ZM9.625 4.375H18.375C18.9161 4.37661 19.4435 4.54569 19.8847 4.85903C20.3259 5.17237 20.6592 5.6146 20.839 6.125H7.161C7.34077 5.6146 7.67414 5.17237 8.11532 4.85903C8.55651 4.54569 9.08387 4.37661 9.625 4.375V4.375ZM21 16.625H18.375V18.375H20.839C20.6592 18.8854 20.3259 19.3276 19.8847 19.641C19.4435 19.9543 18.9161 20.1234 18.375 20.125H9.625C9.08387 20.1234 8.55651 19.9543 8.11532 19.641C7.67414 19.3276 7.34077 18.8854 7.161 18.375H9.625V16.625H7V14.875H21V16.625ZM21 13.125H7V7.875H21V13.125Z" fill="white"/>
</svg>
